<?xml version="1.0" encoding="utf-8" ?>
<svg baseProfile="full" height="31.749599999999997cm" version="1.1" viewBox="0,0,1200,1200" width="31.749599999999997cm" xmlns="http://www.w3.org/2000/svg" xmlns:ev="http://www.w3.org/2001/xml-events" xmlns:xlink="http://www.w3.org/1999/xlink"><defs /><circle cx="600.0" cy="600.0" r="550" stroke="black" stroke-width="2" /><g stroke="red" stroke-width="2"><line x1="1150.0" x2="1150.0" y1="600.0" y2="600.0" /><line x1="1149.7286082011524" x2="1148.9147006355493" y1="617.2759174929705" y2="634.5347857411224" /><line x1="1148.9147006355493" x2="1145.663085722963" y1="634.5347857411224" y2="668.9332784603673" /><line x1="1147.559080531694" x2="1140.2579879007787" y1="651.7595723251828" y2="703.0597230221485" /><line x1="1145.663085722963" x2="1132.720738620747" y1="668.9332784603673" y2="736.7794379406702" /><line x1="1143.2285873273258" x2="1123.0810839623346" y1="686.038955772127" y2="769.9593469062211" /><line x1="1140.2579879007787" x2="1111.3770672385383" y1="703.0597230221485" y2="802.468503976573" /><line x1="1136.7542190663112" x2="1097.6548788563107" y1="719.9787827680984" y2="834.17861036079" /><line x1="1132.720738620747" x2="1081.968674024125" y1="736.7794379406702" y2="864.9645207559435" /><line x1="1128.1615271223186" x2="1064.3803590261082" y1="753.4451083215761" y2="894.7047372384482" /><line x1="1123.0810839623346" x2="1044.959346906221" y1="769.9593469062211" y2="923.2818887608603" /><line x1="1117.484422924824" x2="1023.7822835266841" y1="786.3058561349103" y2="950.5831943617793" /><line x1="1111.3770672385383" x2="1000.9327450817764" y1="802.468503976573" y2="976.5009082607787" /><line x1="1104.7650441261897" x2="976.5009082607787" y1="818.4313398491294" y2="1000.9327450817764" /><line x1="1097.6548788563107" x2="950.5831943617793" y1="834.17861036079" y2="1023.7822835266841" /><line x1="1090.0535883036023" x2="923.2818887608602" y1="849.6947748567508" y2="1044.959346906221" /><line x1="1081.968674024125" x2="894.7047372384482" y1="864.9645207559435" y2="1064.3803590261082" /><line x1="1073.408114852169" x2="864.9645207559433" y1="879.9727786627043" y2="1081.968674024125" /><line x1="1064.3803590261082" x2="834.17861036079" y1="894.7047372384482" y2="1097.6548788563107" /><line x1="1054.894315851009" x2="802.4685039765728" y1="909.1458578186719" y2="1111.3770672385383" /><line x1="1044.959346906221" x2="769.9593469062211" y1="923.2818887608603" y2="1123.0810839623346" /><line x1="1034.5852568066298" x2="736.77943794067" y1="937.0988795091371" y2="1132.720738620747" /><line x1="1023.7822835266841" x2="703.0597230221485" y1="950.5831943617793" y2="1140.2579879007787" /><line x1="1012.5610882967527" x2="668.9332784603673" y1="963.7215259280085" y2="1145.663085722963" /><line x1="1000.9327450817764" x2="634.5347857411223" y1="976.5009082607787" y2="1148.9147006355493" /><line x1="988.9087296526011" x2="599.9999999999999" y1="988.9087296526011" y2="1150.0" /><line x1="976.5009082607787" x2="565.4652142588776" y1="1000.9327450817764" y2="1148.9147006355493" /><line x1="963.7215259280085" x2="531.0667215396326" y1="1012.5610882967528" y2="1145.663085722963" /><line x1="950.5831943617793" x2="496.94027697785134" y1="1023.7822835266841" y2="1140.2579879007787" /><line x1="937.0988795091371" x2="463.22056205932984" y1="1034.5852568066298" y2="1132.720738620747" /><line x1="923.2818887608602" x2="430.0406530937788" y1="1044.959346906221" y2="1123.0810839623346" /><line x1="909.1458578186719" x2="397.5314960234271" y1="1054.894315851009" y2="1111.3770672385383" /><line x1="894.7047372384482" x2="365.82138963921" y1="1064.3803590261082" y2="1097.6548788563107" /><line x1="879.9727786627042" x2="335.0354792440565" y1="1073.408114852169" y2="1081.968674024125" /><line x1="864.9645207559433" x2="305.2952627615517" y1="1081.968674024125" y2="1064.3803590261082" /><line x1="849.6947748567508" x2="276.71811123913983" y1="1090.0535883036023" y2="1044.959346906221" /><line x1="834.17861036079" x2="249.41680563822064" y1="1097.6548788563107" y2="1023.7822835266841" /><line x1="818.4313398491292" x2="223.49909173922123" y1="1104.7650441261897" y2="1000.9327450817764" /><line x1="802.4685039765728" x2="199.06725491822357" y1="1111.3770672385383" y2="976.5009082607787" /><line x1="786.3058561349102" x2="176.21771647331587" y1="1117.4844229248242" y2="950.5831943617793" /><line x1="769.9593469062211" x2="155.04065309377899" y1="1123.0810839623346" y2="923.2818887608603" /><line x1="753.4451083215761" x2="135.6196409738917" y1="1128.1615271223186" y2="894.7047372384482" /><line x1="736.77943794067" x2="118.031325975875" y1="1132.720738620747" y2="864.9645207559433" /><line x1="719.9787827680984" x2="102.34512114368925" y1="1136.7542190663112" y2="834.1786103607899" /><line x1="703.0597230221485" x2="88.6229327614617" y1="1140.2579879007787" y2="802.4685039765727" /><line x1="686.0389557721269" x2="76.91891603766544" y1="1143.2285873273258" y2="769.9593469062208" /><line x1="668.9332784603673" x2="67.27926137925294" y1="1145.663085722963" y2="736.7794379406702" /><line x1="651.7595723251828" x2="59.742012099221256" y1="1147.559080531694" y2="703.0597230221485" /><line x1="634.5347857411223" x2="54.33691427703718" y1="1148.9147006355493" y2="668.9332784603672" /><line x1="617.2759174929705" x2="51.085299364450634" y1="1149.7286082011524" y2="634.5347857411223" /><line x1="599.9999999999999" x2="50.0" y1="1150.0" y2="599.9999999999998" /><line x1="582.7240825070295" x2="51.085299364450634" y1="1149.7286082011524" y2="565.4652142588776" /><line x1="565.4652142588776" x2="54.33691427703718" y1="1148.9147006355493" y2="531.0667215396327" /><line x1="548.240427674817" x2="59.742012099221256" y1="1147.559080531694" y2="496.9402769778514" /><line x1="531.0667215396326" x2="67.27926137925294" y1="1145.663085722963" y2="463.2205620593297" /><line x1="513.9610442278729" x2="76.91891603766555" y1="1143.2285873273258" y2="430.04065309377876" /><line x1="496.94027697785134" x2="88.62293276146181" y1="1140.2579879007787" y2="397.53149602342694" /><line x1="480.0212172319016" x2="102.34512114368931" y1="1136.7542190663112" y2="365.82138963921" /><line x1="463.22056205932984" x2="118.031325975875" y1="1132.720738620747" y2="335.03547924405655" /><line x1="446.55489167842387" x2="135.61964097389176" y1="1128.1615271223186" y2="305.2952627615518" /><line x1="430.0406530937788" x2="155.04065309377904" y1="1123.0810839623346" y2="276.71811123913966" /><line x1="413.69414386508964" x2="176.21771647331605" y1="1117.484422924824" y2="249.41680563822052" /><line x1="397.5314960234271" x2="199.06725491822363" y1="1111.3770672385383" y2="223.49909173922123" /><line x1="381.56866015087064" x2="223.49909173922129" y1="1104.7650441261897" y2="199.06725491822363" /><line x1="365.82138963921" x2="249.41680563822075" y1="1097.6548788563107" y2="176.21771647331587" /><line x1="350.30522514324934" x2="276.7181112391397" y1="1090.0535883036023" y2="155.04065309377899" /><line x1="335.0354792440565" x2="305.295262761552" y1="1081.968674024125" y2="135.6196409738916" /><line x1="320.02722133729577" x2="335.0354792440566" y1="1073.408114852169" y2="118.031325975875" /><line x1="305.2952627615517" x2="365.82138963921034" y1="1064.3803590261082" y2="102.34512114368908" /><line x1="290.85414218132814" x2="397.53149602342717" y1="1054.894315851009" y2="88.6229327614617" /><line x1="276.71811123913983" x2="430.0406530937788" y1="1044.959346906221" y2="76.91891603766555" /><line x1="262.90112049086287" x2="463.22056205933006" y1="1034.5852568066298" y2="67.27926137925283" /><line x1="249.41680563822064" x2="496.94027697785145" y1="1023.7822835266841" y2="59.742012099221256" /><line x1="236.27847407199135" x2="531.0667215396329" y1="1012.5610882967526" y2="54.33691427703718" /><line x1="223.49909173922123" x2="565.4652142588777" y1="1000.9327450817764" y2="51.085299364450634" /><line x1="211.0912703473989" x2="599.9999999999999" y1="988.9087296526011" y2="50.0" /><line x1="199.06725491822357" x2="634.5347857411225" y1="976.5009082607787" y2="51.085299364450634" /><line x1="187.4389117032473" x2="668.9332784603673" y1="963.7215259280085" y2="54.33691427703718" /><line x1="176.21771647331587" x2="703.0597230221488" y1="950.5831943617793" y2="59.742012099221256" /><line x1="165.41474319337027" x2="736.7794379406703" y1="937.0988795091371" y2="67.27926137925294" /><line x1="155.04065309377899" x2="769.959346906221" y1="923.2818887608603" y2="76.91891603766544" /><line x1="145.10568414899092" x2="802.4685039765731" y1="909.1458578186717" y2="88.62293276146181" /><line x1="135.6196409738917" x2="834.1786103607899" y1="894.7047372384482" y2="102.34512114368925" /><line x1="126.59188514783091" x2="864.9645207559436" y1="879.9727786627041" y2="118.03132597587518" /><line x1="118.031325975875" x2="894.7047372384482" y1="864.9645207559433" y2="135.61964097389176" /><line x1="109.9464116963976" x2="923.2818887608605" y1="849.6947748567505" y2="155.04065309377916" /><line x1="102.34512114368925" x2="950.5831943617795" y1="834.1786103607899" y2="176.21771647331605" /><line x1="95.23495587381035" x2="976.5009082607787" y1="818.4313398491294" y2="199.06725491822363" /><line x1="88.6229327614617" x2="1000.9327450817766" y1="802.4685039765727" y2="223.49909173922146" /><line x1="82.515577075176" x2="1023.7822835266841" y1="786.3058561349102" y2="249.4168056382207" /><line x1="76.91891603766544" x2="1044.9593469062213" y1="769.9593469062208" y2="276.71811123914006" /><line x1="71.83847287768128" x2="1064.3803590261084" y1="753.4451083215761" y2="305.295262761552" /><line x1="67.27926137925294" x2="1081.968674024125" y1="736.7794379406702" y2="335.03547924405655" /><line x1="63.245780933688934" x2="1097.654878856311" y1="719.9787827680983" y2="365.8213896392103" /><line x1="59.742012099221256" x2="1111.3770672385383" y1="703.0597230221485" y2="397.53149602342717" /><line x1="56.77141267267427" x2="1123.0810839623346" y1="686.0389557721268" y2="430.04065309377927" /><line x1="54.33691427703718" x2="1132.7207386207472" y1="668.9332784603672" y2="463.22056205933006" /><line x1="52.44091946830599" x2="1140.2579879007787" y1="651.759572325183" y2="496.94027697785145" /><line x1="51.085299364450634" x2="1145.663085722963" y1="634.5347857411223" y2="531.0667215396329" /><line x1="50.27139179884762" x2="1148.9147006355493" y1="617.2759174929705" y2="565.4652142588777" /><line x1="1150.0" x2="50.0" y1="600.0" y2="599.9999999999998" /><line x1="1148.9147006355493" x2="50.27139179884762" y1="634.5347857411224" y2="582.7240825070294" /><line x1="1145.663085722963" x2="51.085299364450634" y1="668.9332784603673" y2="565.4652142588776" /><line x1="1140.2579879007787" x2="52.44091946830599" y1="703.0597230221485" y2="548.240427674817" /><line x1="1132.720738620747" x2="54.33691427703718" y1="736.7794379406702" y2="531.0667215396327" /><line x1="1123.0810839623346" x2="56.77141267267427" y1="769.9593469062211" y2="513.9610442278729" /><line x1="1111.3770672385383" x2="59.742012099221256" y1="802.468503976573" y2="496.9402769778514" /><line x1="1097.6548788563107" x2="63.245780933688934" y1="834.17861036079" y2="480.02121723190163" /><line x1="1081.968674024125" x2="67.27926137925294" y1="864.9645207559435" y2="463.2205620593297" /><line x1="1064.3803590261082" x2="71.83847287768128" y1="894.7047372384482" y2="446.5548916784239" /><line x1="1044.959346906221" x2="76.91891603766555" y1="923.2818887608603" y2="430.04065309377876" /><line x1="1023.7822835266841" x2="82.515577075176" y1="950.5831943617793" y2="413.6941438650897" /><line x1="1000.9327450817764" x2="88.62293276146181" y1="976.5009082607787" y2="397.53149602342694" /><line x1="976.5009082607787" x2="95.2349558738104" y1="1000.9327450817764" y2="381.5686601508705" /><line x1="950.5831943617793" x2="102.34512114368931" y1="1023.7822835266841" y2="365.82138963921" /><line x1="923.2818887608602" x2="109.94641169639777" y1="1044.959346906221" y2="350.3052251432491" /><line x1="894.7047372384482" x2="118.031325975875" y1="1064.3803590261082" y2="335.03547924405655" /><line x1="864.9645207559433" x2="126.59188514783114" y1="1081.968674024125" y2="320.0272213372956" /><line x1="834.17861036079" x2="135.61964097389176" y1="1097.6548788563107" y2="305.2952627615518" /><line x1="802.4685039765728" x2="145.10568414899097" y1="1111.3770672385383" y2="290.8541421813282" /><line x1="769.9593469062211" x2="155.04065309377904" y1="1123.0810839623346" y2="276.71811123913966" /><line x1="736.77943794067" x2="165.41474319337033" y1="1132.720738620747" y2="262.90112049086287" /><line x1="703.0597230221485" x2="176.21771647331605" y1="1140.2579879007787" y2="249.41680563822052" /><line x1="668.9332784603673" x2="187.43891170324736" y1="1145.663085722963" y2="236.27847407199135" /><line x1="634.5347857411223" x2="199.06725491822363" y1="1148.9147006355493" y2="223.49909173922123" /><line x1="599.9999999999999" x2="211.09127034739896" y1="1150.0" y2="211.0912703473988" /><line x1="565.4652142588776" x2="223.49909173922129" y1="1148.9147006355493" y2="199.06725491822363" /><line x1="531.0667215396326" x2="236.27847407199164" y1="1145.663085722963" y2="187.43891170324713" /><line x1="496.94027697785134" x2="249.41680563822075" y1="1140.2579879007787" y2="176.21771647331587" /><line x1="463.22056205932984" x2="262.9011204908629" y1="1132.720738620747" y2="165.41474319337027" /><line x1="430.0406530937788" x2="276.7181112391397" y1="1123.0810839623346" y2="155.04065309377899" /><line x1="397.5314960234271" x2="290.8541421813284" y1="1111.3770672385383" y2="145.1056841489908" /><line x1="365.82138963921" x2="305.295262761552" y1="1097.6548788563107" y2="135.6196409738916" /><line x1="335.0354792440565" x2="320.0272213372959" y1="1081.968674024125" y2="126.59188514783091" /><line x1="305.2952627615517" x2="335.0354792440566" y1="1064.3803590261082" y2="118.031325975875" /><line x1="276.71811123913983" x2="350.30522514324923" y1="1044.959346906221" y2="109.94641169639772" /><line x1="249.41680563822064" x2="365.82138963921034" y1="1023.7822835266841" y2="102.34512114368908" /><line x1="223.49909173922123" x2="381.56866015087087" y1="1000.9327450817764" y2="95.23495587381029" /><line x1="199.06725491822357" x2="397.53149602342717" y1="976.5009082607787" y2="88.6229327614617" /><line x1="176.21771647331587" x2="413.69414386508976" y1="950.5831943617793" y2="82.515577075176" /><line x1="155.04065309377899" x2="430.0406530937788" y1="923.2818887608603" y2="76.91891603766555" /><line x1="135.6196409738917" x2="446.5548916784242" y1="894.7047372384482" y2="71.83847287768128" /><line x1="118.031325975875" x2="463.22056205933006" y1="864.9645207559433" y2="67.27926137925283" /><line x1="102.34512114368925" x2="480.0212172319017" y1="834.1786103607899" y2="63.245780933688934" /><line x1="88.6229327614617" x2="496.94027697785145" y1="802.4685039765727" y2="59.742012099221256" /><line x1="76.91891603766544" x2="513.9610442278729" y1="769.9593469062208" y2="56.77141267267427" /><line x1="67.27926137925294" x2="531.0667215396329" y1="736.7794379406702" y2="54.33691427703718" /><line x1="59.742012099221256" x2="548.2404276748173" y1="703.0597230221485" y2="52.44091946830599" /><line x1="54.33691427703718" x2="565.4652142588777" y1="668.9332784603672" y2="51.085299364450634" /><line x1="51.085299364450634" x2="582.7240825070294" y1="634.5347857411223" y2="50.27139179884762" /><line x1="50.0" x2="599.9999999999999" y1="599.9999999999998" y2="50.0" /><line x1="51.085299364450634" x2="617.2759174929708" y1="565.4652142588776" y2="50.27139179884773" /><line x1="54.33691427703718" x2="634.5347857411225" y1="531.0667215396327" y2="51.085299364450634" /><line x1="59.742012099221256" x2="651.759572325183" y1="496.9402769778514" y2="52.44091946830599" /><line x1="67.27926137925294" x2="668.9332784603673" y1="463.2205620593297" y2="54.33691427703718" /><line x1="76.91891603766555" x2="686.0389557721269" y1="430.04065309377876" y2="56.77141267267427" /><line x1="88.62293276146181" x2="703.0597230221488" y1="397.53149602342694" y2="59.742012099221256" /><line x1="102.34512114368931" x2="719.9787827680987" y1="365.82138963921" y2="63.245780933688934" /><line x1="118.031325975875" x2="736.7794379406703" y1="335.03547924405655" y2="67.27926137925294" /><line x1="135.61964097389176" x2="753.4451083215761" y1="305.2952627615518" y2="71.83847287768128" /><line x1="155.04065309377904" x2="769.959346906221" y1="276.71811123913966" y2="76.91891603766544" /><line x1="176.21771647331605" x2="786.3058561349105" y1="249.41680563822052" y2="82.51557707517611" /><line x1="199.06725491822363" x2="802.4685039765731" y1="223.49909173922123" y2="88.62293276146181" /><line x1="223.49909173922129" x2="818.4313398491295" y1="199.06725491822363" y2="95.2349558738104" /><line x1="249.41680563822075" x2="834.1786103607899" y1="176.21771647331587" y2="102.34512114368925" /><line x1="276.7181112391397" x2="849.6947748567511" y1="155.04065309377899" y2="109.94641169639783" /><line x1="305.295262761552" x2="864.9645207559436" y1="135.6196409738916" y2="118.03132597587518" /><line x1="335.0354792440566" x2="879.9727786627043" y1="118.031325975875" y2="126.59188514783114" /><line x1="365.82138963921034" x2="894.7047372384482" y1="102.34512114368908" y2="135.61964097389176" /><line x1="397.53149602342717" x2="909.1458578186719" y1="88.6229327614617" y2="145.10568414899097" /><line x1="430.0406530937788" x2="923.2818887608605" y1="76.91891603766555" y2="155.04065309377916" /><line x1="463.22056205933006" x2="937.0988795091373" y1="67.27926137925283" y2="165.41474319337044" /><line x1="496.94027697785145" x2="950.5831943617795" y1="59.742012099221256" y2="176.21771647331605" /><line x1="531.0667215396329" x2="963.7215259280085" y1="54.33691427703718" y2="187.4389117032473" /><line x1="565.4652142588777" x2="976.5009082607787" y1="51.085299364450634" y2="199.06725491822363" /><line x1="599.9999999999999" x2="988.9087296526014" y1="50.0" y2="211.09127034739913" /><line x1="634.5347857411225" x2="1000.9327450817766" y1="51.085299364450634" y2="223.49909173922146" /><line x1="668.9332784603673" x2="1012.5610882967528" y1="54.33691427703718" y2="236.27847407199164" /><line x1="703.0597230221488" x2="1023.7822835266841" y1="59.742012099221256" y2="249.4168056382207" /><line x1="736.7794379406703" x2="1034.5852568066298" y1="67.27926137925294" y2="262.9011204908629" /><line x1="769.959346906221" x2="1044.9593469062213" y1="76.91891603766544" y2="276.71811123914006" /><line x1="802.4685039765731" x2="1054.8943158510092" y1="88.62293276146181" y2="290.8541421813284" /><line x1="834.1786103607899" x2="1064.3803590261084" y1="102.34512114368925" y2="305.295262761552" /><line x1="864.9645207559436" x2="1073.408114852169" y1="118.03132597587518" y2="320.0272213372958" /><line x1="894.7047372384482" x2="1081.968674024125" y1="135.61964097389176" y2="335.03547924405655" /><line x1="923.2818887608605" x2="1090.0535883036025" y1="155.04065309377916" y2="350.3052251432496" /><line x1="950.5831943617795" x2="1097.654878856311" y1="176.21771647331605" y2="365.8213896392103" /><line x1="976.5009082607787" x2="1104.7650441261897" y1="199.06725491822363" y2="381.5686601508708" /><line x1="1000.9327450817766" x2="1111.3770672385383" y1="223.49909173922146" y2="397.53149602342717" /><line x1="1023.7822835266841" x2="1117.484422924824" y1="249.4168056382207" y2="413.6941438650897" /><line x1="1044.9593469062213" x2="1123.0810839623346" y1="276.71811123914006" y2="430.04065309377927" /><line x1="1064.3803590261084" x2="1128.1615271223186" y1="305.295262761552" y2="446.55489167842416" /><line x1="1081.968674024125" x2="1132.7207386207472" y1="335.03547924405655" y2="463.22056205933006" /><line x1="1097.654878856311" x2="1136.7542190663112" y1="365.8213896392103" y2="480.0212172319017" /><line x1="1111.3770672385383" x2="1140.2579879007787" y1="397.53149602342717" y2="496.94027697785145" /><line x1="1123.0810839623346" x2="1143.2285873273258" y1="430.04065309377927" y2="513.9610442278733" /><line x1="1132.7207386207472" x2="1145.663085722963" y1="463.22056205933006" y2="531.0667215396329" /><line x1="1140.2579879007787" x2="1147.559080531694" y1="496.94027697785145" y2="548.2404276748173" /><line x1="1145.663085722963" x2="1148.9147006355493" y1="531.0667215396329" y2="565.4652142588777" /><line x1="1148.9147006355493" x2="1149.7286082011524" y1="565.4652142588777" y2="582.7240825070294" /></g></svg>